<?xml version="1.0" encoding="UTF-8" standalone="no"?>
<!-- Created with Inkscape (http://www.inkscape.org/) -->

<svg
   width="720"
   height="720"
   viewBox="0 0 190.5 190.49999"
   version="1.1"
   id="svg1"
   xml:space="preserve"
   xmlns="http://www.w3.org/2000/svg"
   xmlns:svg="http://www.w3.org/2000/svg"><defs
     id="defs1" /><g
     id="g3"
     style="display:inline"><g
       id="g13"><path
         id="path1"
         style="display:inline;opacity:1;fill:#0088aa;stroke-width:0.264583"
         d="m 84.400533,29.104166 a 64.964752,64.964752 0 0 0 -53.445834,28.03292 39.950626,39.950626 0 0 1 25.483199,13.85651 36.171513,36.171513 0 0 1 27.242785,-12.3765 36.171513,36.171513 0 0 1 25.788087,10.80709 l 30.27412,-9.37927 A 64.964752,64.964752 0 0 0 84.400533,29.104166 Z m 24.900287,62.04273 v 7.14375 h 17.51211 l -18.40508,22.869924 v 0.0279 a 36.171513,36.171513 0 0 1 -24.727167,9.77202 36.171513,36.171513 0 0 1 -25.549866,-10.56732 39.950626,39.950626 0 0 1 -23.547399,15.37374 64.964752,64.964752 0 0 0 49.817115,23.2668 64.964752,64.964752 0 0 0 55.442607,-31.10456 l -0.40463,-0.1292 v -6.86263 h -19.37246 l 18.38027,-22.745894 v -7.04453 z" /><path
         id="path5"
         style="display:inline;opacity:1;fill:#0088aa;stroke-width:0.264583"
         d="M 24.834142,73.014146 A 24.834171,24.834171 0 0 0 0,97.848286 24.834171,24.834171 0 0 0 24.834142,122.68244 24.834171,24.834171 0 0 0 49.668285,97.848286 24.834171,24.834171 0 0 0 24.834142,73.014146 Z m 0,11.34763 A 13.316875,13.316875 0 0 1 38.151159,97.678796 13.316875,13.316875 0 0 1 24.834142,110.99581 13.316875,13.316875 0 0 1 11.517643,97.678796 13.316875,13.316875 0 0 1 24.834142,84.361776 Z" /><path
         id="rect7"
         style="display:inline;opacity:1;fill:#00aad4;fill-opacity:1;stroke:none;stroke-width:0.244087"
         d="m 143.45842,73.247206 v 47.149064 h 47.14906 V 73.247206 Z m 31.39653,5.33921 c 1.38678,0 2.55052,0.16984 3.49126,0.50953 0.94075,0.33302 1.71137,0.83256 2.31149,1.49862 0.59202,0.65273 1.02171,1.45882 1.28933,2.41794 0.26762,0.95246 0.40152,2.05459 0.40152,3.30677 0,1.25218 -0.13768,2.37482 -0.41341,3.36724 -0.27573,0.98576 -0.70593,1.79501 -1.28984,2.42776 -0.60013,0.64607 -1.37023,1.13561 -2.31097,1.46864 -0.94074,0.32637 -2.10071,0.48938 -3.47938,0.48938 -1.35434,0 -2.51002,-0.16668 -3.46697,-0.49971 -0.95696,-0.33303 -1.73135,-0.82573 -2.32337,-1.47847 -0.60013,-0.65273 -1.03411,-1.46198 -1.30173,-2.42775 -0.26762,-0.97244 -0.40101,-2.08457 -0.40101,-3.33675 0,-1.29214 0.13768,-2.41478 0.41341,-3.36724 0.27574,-0.95246 0.71349,-1.75803 1.31362,-2.41742 0.60013,-0.65273 1.37881,-1.14228 2.33577,-1.46865 0.95696,-0.32636 2.10027,-0.48989 3.43028,-0.48989 z m -19.00142,0.25993 h 4.02663 v 12.31863 h 3.73465 v 2.59778 h -12.09176 v -2.59778 h 3.81992 v -7.86257 h -3.81992 v -2.42776 c 0.5839,0 1.14372,-0.0268 1.67896,-0.0801 0.53525,-0.0599 0.98107,-0.15984 1.33791,-0.29973 0.4217,-0.16651 0.73792,-0.38315 0.94877,-0.64957 0.21087,-0.26642 0.33241,-0.59927 0.36484,-0.99891 z m 19.00142,2.48771 c -0.99751,0 -1.71114,0.38281 -2.14095,1.14876 -0.42982,0.75931 -0.64441,2.04495 -0.64441,3.85662 0,1.76504 0.21888,3.03702 0.65681,3.8163 0.43793,0.77928 1.14726,1.16892 2.12855,1.16892 0.98129,0 1.69114,-0.38964 2.12907,-1.16892 0.43793,-0.77928 0.65681,-2.05809 0.65681,-3.83646 0,-1.79835 -0.21511,-3.07715 -0.64492,-3.83646 -0.42982,-0.76595 -1.14345,-1.14876 -2.14096,-1.14876 z m 0,18.48724 c 1.38678,0 2.55052,0.16984 3.49126,0.509534 0.94074,0.33303 1.71136,0.83256 2.31149,1.49862 0.59202,0.65273 1.0217,1.45882 1.28933,2.41794 0.26762,0.95245 0.40152,2.05511 0.40152,3.30729 0,1.25218 -0.13767,2.3743 -0.41341,3.36672 -0.27573,0.98576 -0.70593,1.79501 -1.28984,2.42776 -0.60013,0.64607 -1.37023,1.13561 -2.31097,1.46864 -0.94074,0.32637 -2.10071,0.48938 -3.47938,0.48938 -1.35434,0 -2.51001,-0.16617 -3.46697,-0.4992 -0.95696,-0.33302 -1.73135,-0.82624 -2.32337,-1.47898 -0.60013,-0.65273 -1.03411,-1.46198 -1.30173,-2.42776 -0.26762,-0.97243 -0.40101,-2.08456 -0.40101,-3.33674 0,-1.29215 0.13768,-2.41478 0.41341,-3.36724 0.27574,-0.95246 0.71349,-1.75803 1.31362,-2.41742 0.60012,-0.65274 1.37881,-1.14228 2.33577,-1.46865 0.95696,-0.326364 2.10027,-0.489894 3.43028,-0.489894 z m -19.0009,0.259934 h 4.02611 v 12.31863 h 3.73465 v 2.59778 h -12.09176 v -2.59778 h 3.81992 v -7.86257 h -3.81992 v -2.42776 c 0.5839,0 1.14371,-0.0268 1.67896,-0.0801 0.53525,-0.06 0.98107,-0.15986 1.33791,-0.29973 0.42171,-0.16651 0.73792,-0.38315 0.94877,-0.64957 0.21086,-0.26642 0.33292,-0.59927 0.36536,-0.99891 z m 19.0009,2.48771 c -0.9975,0 -1.71113,0.3828 -2.14095,1.14876 -0.42982,0.75931 -0.64441,2.04495 -0.64441,3.85662 0,1.76504 0.21888,3.03753 0.65681,3.81682 0.43793,0.77928 1.14727,1.16892 2.12855,1.16892 0.98129,0 1.69114,-0.38964 2.12907,-1.16892 0.43793,-0.77929 0.65681,-2.0581 0.65681,-3.83646 0,-1.79835 -0.2151,-3.07767 -0.64492,-3.83698 -0.42982,-0.76596 -1.14345,-1.14876 -2.14096,-1.14876 z" /><circle
         style="fill:#00aad4;stroke-width:0.302878"
         id="circle3"
         cx="84.040443"
         cy="94.068954"
         r="15.656325" /></g></g></svg>
